<svg width="31" height="31" viewBox="0 0 31 31" fill="none" xmlns="http://www.w3.org/2000/svg">
<path d="M17.5619 30.75C14.8856 30.75 12.6059 29.8155 10.7229 27.9465C8.83994 26.0775 7.89844 23.8037 7.89844 21.125V20.2202C5.68177 20.0138 3.8151 19.0804 2.29844 17.4202C0.781771 15.7624 0.0234375 13.789 0.0234375 11.5V1.875H5.27344V0.125H7.02344V5.375H5.27344V3.625H1.77344V11.5C1.77344 13.425 2.45885 15.0729 3.82969 16.4438C5.20052 17.8146 6.84844 18.5 8.77344 18.5C10.6984 18.5 12.3464 17.8146 13.7172 16.4438C15.088 15.0729 15.7734 13.425 15.7734 11.5V3.625H12.2734V5.375H10.5234V0.125H12.2734V1.875H17.5234V11.5C17.5234 13.789 16.7651 15.763 15.2484 17.422C13.7318 19.081 11.8651 20.0138 9.64844 20.2202V21.125C9.64844 23.3125 10.4173 25.1722 11.9549 26.704C13.4949 28.2347 15.3634 29 17.5602 29C19.7477 29 21.6068 28.2347 23.1374 26.704C24.6681 25.1733 25.434 23.3137 25.4352 21.125V18.395C24.6162 18.2025 23.9401 17.772 23.4069 17.1035C22.8738 16.435 22.6072 15.6662 22.6072 14.797C22.6072 13.7703 22.9677 12.8965 23.6887 12.1755C24.4097 11.4557 25.2847 11.0957 26.3137 11.0957C27.3427 11.0957 28.2165 11.4557 28.9352 12.1755C29.6539 12.8953 30.0126 13.7697 30.0114 14.7987C30.0114 15.6667 29.7449 16.435 29.2117 17.1035C28.6797 17.772 28.0042 18.2031 27.1852 18.3967V21.125C27.1852 23.8037 26.2507 26.0775 24.3817 27.9465C22.5127 29.8155 20.2394 30.75 17.5619 30.75Z" fill="#1D1B20"/>
</svg>
