<svg width="42" height="42" viewBox="0 0 42 42" fill="none" xmlns="http://www.w3.org/2000/svg">
<path d="M9.11403 18.7144C8.9507 18.5441 8.86903 18.3417 8.86903 18.1072C8.86903 17.8727 8.9507 17.6592 9.11403 17.4667L13.44 13.1389L11.0215 10.7519L9.89103 11.8824C9.69853 12.0761 9.48503 12.1729 9.25053 12.1729C9.01603 12.1729 8.81362 12.0761 8.64328 11.8824C8.45662 11.7191 8.36328 11.5184 8.36328 11.2804C8.36328 11.0424 8.45662 10.8307 8.64328 10.6452L12.1433 7.17844C12.3136 6.98477 12.516 6.88794 12.7505 6.88794C12.985 6.88794 13.1985 6.98477 13.391 7.17844C13.5544 7.34177 13.636 7.54244 13.636 7.78044C13.636 8.01844 13.5544 8.21911 13.391 8.38244L12.2273 9.54794L14.6458 11.9332L18.9735 7.60544C19.1672 7.41294 19.3813 7.31669 19.6158 7.31669C19.8503 7.31669 20.0527 7.41294 20.223 7.60544C20.4155 7.77577 20.5118 7.97819 20.5118 8.21269C20.5118 8.44719 20.4155 8.66069 20.223 8.85319L19.243 9.82269L31.1395 21.7192C31.6984 22.2792 31.9778 22.9524 31.9778 23.7387C31.9778 24.525 31.6984 25.1859 31.1395 25.7214L29.8148 27.0584L36.8708 34.1057H34.3735L28.5653 28.2957L27.2388 29.6327C26.7021 30.1694 26.0412 30.4377 25.256 30.4377C24.4709 30.4377 23.7983 30.1694 23.2383 29.6327L11.34 17.7362L10.36 18.7162C10.1675 18.9017 9.95986 18.9944 9.73703 18.9944C9.51303 18.9944 9.30478 18.9011 9.11228 18.7144M12.544 16.5304L24.4405 28.4269C24.6657 28.6288 24.9241 28.7297 25.2158 28.7297C25.5074 28.7297 25.7653 28.6288 25.9893 28.4269L29.89 24.4842C30.114 24.2812 30.226 24.0286 30.226 23.7264C30.226 23.4231 30.114 23.1705 29.89 22.9687L27.3998 20.4347L24.7135 23.1209C24.521 23.3076 24.3128 23.4021 24.0888 23.4044C23.8648 23.4068 23.6717 23.3263 23.5095 23.1629C23.3159 22.9926 23.219 22.7902 23.219 22.5557C23.219 22.3212 23.3159 22.1077 23.5095 21.9152L26.194 19.2289L22.526 15.5959L19.8415 18.2804C19.67 18.4438 19.467 18.5254 19.2325 18.5254C18.998 18.5254 18.7845 18.4438 18.592 18.2804C18.4287 18.0879 18.347 17.8744 18.347 17.6399C18.347 17.4054 18.4287 17.203 18.592 17.0327L21.2783 14.3464L18.004 11.0722L12.544 16.5304ZM12.544 16.5304L12.7628 16.3117L13.3193 15.7569L17.2655 11.8124L17.787 11.2909L18.004 11.0722L12.544 16.5304Z" fill="#1D1B20"/>
</svg>
