<svg width="35" height="35" viewBox="0 0 35 35" fill="none" xmlns="http://www.w3.org/2000/svg">
<path d="M32.1008 21.4959C32.1008 22.8511 31.5625 24.1509 30.6042 25.1092C29.6458 26.0675 28.3461 26.6059 26.9908 26.6059C25.6356 26.6059 24.3358 26.0675 23.3775 25.1092C22.4192 24.1509 21.8808 22.8511 21.8808 21.4959C21.8808 17.6634 26.985 11.2744 26.985 11.2744C26.985 11.2744 32.1008 17.6634 32.1008 21.4959ZM14.5804 13.4648H5.81875C5.43524 13.4644 5.05542 13.5397 4.70102 13.6863C4.34663 13.8329 4.02463 14.0479 3.75344 14.3191C3.48226 14.5903 3.26722 14.9123 3.12063 15.2667C2.97404 15.6211 2.89879 16.0009 2.89917 16.3844V30.9867C2.89917 32.5996 4.20584 33.9063 5.81875 33.9063H14.5804C14.9639 33.9067 15.3438 33.8314 15.6982 33.6848C16.0525 33.5382 16.3745 33.3232 16.6457 33.052C16.9169 32.7808 17.132 32.4588 17.2785 32.1044C17.4251 31.75 17.5004 31.3702 17.5 30.9867V16.3844C17.5004 16.0009 17.4251 15.6211 17.2785 15.2667C17.132 14.9123 16.9169 14.5903 16.6457 14.3191C16.3745 14.0479 16.0525 13.8329 15.6982 13.6863C15.3438 13.5397 14.9639 13.4644 14.5804 13.4648Z" stroke="#1D1B20" stroke-width="1.5" stroke-linecap="round" stroke-linejoin="round"/>
<path d="M20.4166 4.01333L19.7647 2.70813C19.5228 2.22323 19.1505 1.81533 18.6897 1.53018C18.2288 1.24503 17.6977 1.0939 17.1558 1.09375H4.35889M10.1995 20.7652V26.6058M7.27993 23.6863H13.1191M10.1995 1.09375V9.08542M6.95034 9.08542H13.4487C13.5974 9.08503 13.7448 9.11397 13.8823 9.17058C14.0198 9.22719 14.1449 9.31036 14.2503 9.41533C14.3556 9.52029 14.4393 9.64501 14.4964 9.78233C14.5536 9.91965 14.5831 10.0669 14.5833 10.2156V13.4648H5.81868V10.2156C5.81906 9.91574 5.93846 9.62827 6.15065 9.41636C6.36284 9.20445 6.65046 9.08542 6.95034 9.08542Z" stroke="#1D1B20" stroke-width="1.5" stroke-linecap="round" stroke-linejoin="round"/>
</svg>
