<svg width="35" height="35" viewBox="0 0 35 35" fill="none" xmlns="http://www.w3.org/2000/svg">
<path d="M31.4645 8.49973C31.0581 8.0107 30.5553 7.6106 29.9875 7.32435C29.4196 7.03809 28.799 6.87181 28.1641 6.83586C28.1216 6.12949 27.9183 5.44215 27.5699 4.82625C27.2214 4.21034 26.7369 3.68212 26.1534 3.28185C25.5698 2.88159 24.9025 2.61984 24.2025 2.51657C23.5024 2.41329 22.788 2.47122 22.1137 2.68592C21.4394 2.90063 20.823 3.26646 20.3116 3.75551C19.8001 4.24456 19.407 4.84393 19.1624 5.50793C18.9177 6.17193 18.8278 6.88303 18.8996 7.58703C18.9715 8.29102 19.2031 8.96933 19.5768 9.57024C19.6128 9.62273 19.6294 9.68614 19.6236 9.74953C19.6179 9.81292 19.5902 9.87233 19.5454 9.9175L9.92036 19.5507C9.87432 19.5945 9.81482 19.6215 9.75152 19.6272C9.68823 19.6329 9.62486 19.617 9.57173 19.5821C8.97103 19.2065 8.29242 18.9732 7.58775 18.8999C6.88307 18.8267 6.17098 18.9155 5.50587 19.1595C4.84077 19.4036 4.24025 19.7965 3.75019 20.3081C3.26013 20.8197 2.89351 21.4366 2.67833 22.1116C2.46315 22.7866 2.40511 23.5019 2.50864 24.2027C2.61217 24.9036 2.87453 25.5715 3.27568 26.1555C3.67683 26.7395 4.20615 27.224 4.82321 27.5721C5.44026 27.9202 6.12872 28.1227 6.83598 28.164C6.87852 28.8704 7.08176 29.5577 7.43022 30.1736C7.77868 30.7895 8.26316 31.3177 8.84673 31.718C9.4303 32.1183 10.0976 32.38 10.7976 32.4833C11.4977 32.5866 12.2121 32.5286 12.8864 32.3139C13.5607 32.0992 14.1771 31.7334 14.6885 31.2443C15.2 30.7553 15.593 30.1559 15.8377 29.4919C16.0824 28.8279 16.1723 28.1168 16.1005 27.4128C16.0286 26.7088 15.797 26.0305 15.4233 25.4296C15.3873 25.3771 15.3707 25.3137 15.3765 25.2503C15.3822 25.1869 15.4099 25.1275 15.4547 25.0823L25.0797 15.4573C25.1249 15.4125 25.1843 15.3848 25.2477 15.3791C25.3111 15.3733 25.3745 15.3899 25.427 15.4259C26.3651 16.0173 27.4837 16.254 28.5809 16.093C29.6781 15.932 30.6816 15.3841 31.4103 14.5482C32.139 13.7122 32.5448 12.6433 32.5545 11.5344C32.5642 10.4255 32.1771 9.34965 31.4631 8.5011L31.4645 8.49973ZM30.1602 13.464C29.6895 14.0026 29.0423 14.3558 28.3348 14.4603C27.6272 14.5647 26.9055 14.4137 26.2993 14.0341C25.9319 13.801 25.4962 13.7 25.0637 13.7477C24.6313 13.7954 24.228 13.989 23.9204 14.2966L14.2967 23.9257C13.9891 24.2334 13.7955 24.6366 13.7478 25.0691C13.7001 25.5015 13.8011 25.9373 14.0342 26.3046C14.2909 26.7164 14.4441 27.1842 14.4808 27.668C14.5175 28.1519 14.4366 28.6374 14.245 29.0832C14.0534 29.529 13.7568 29.9218 13.3805 30.2282C13.0042 30.5345 12.5594 30.7452 12.084 30.8424C11.6086 30.9396 11.1167 30.9203 10.6504 30.7862C10.184 30.6521 9.75708 30.4072 9.40591 30.0723C9.05474 29.7375 8.7898 29.3226 8.6337 28.8632C8.47759 28.4038 8.43495 27.9134 8.50942 27.4339C8.52779 27.3168 8.52058 27.1972 8.48827 27.0832C8.45597 26.9691 8.39934 26.8635 8.3223 26.7734C8.24525 26.6834 8.14961 26.6111 8.04195 26.5616C7.9343 26.512 7.81719 26.4864 7.69868 26.4864C7.65613 26.4868 7.61366 26.49 7.57153 26.496C7.09205 26.5705 6.60167 26.5279 6.14224 26.3717C5.68281 26.2156 5.26797 25.9507 4.93311 25.5995C4.59825 25.2484 4.35333 24.8214 4.21923 24.3551C4.08514 23.8887 4.06585 23.3969 4.16303 22.9215C4.2602 22.4461 4.47095 22.0013 4.77728 21.6249C5.08362 21.2486 5.47644 20.952 5.92224 20.7604C6.36804 20.5688 6.85358 20.4879 7.33742 20.5246C7.82126 20.5613 8.28903 20.7146 8.70083 20.9712C9.06822 21.2022 9.50322 21.3016 9.93447 21.2529C10.3657 21.2042 10.7676 21.0104 11.0743 20.7032L20.7034 11.0741C21.011 10.7665 21.2046 10.3632 21.2523 9.93078C21.3 9.49835 21.199 9.06256 20.9659 8.69524C20.7092 8.28344 20.556 7.81566 20.5193 7.33182C20.4826 6.84799 20.5635 6.36245 20.7551 5.91665C20.9467 5.47085 21.2433 5.07802 21.6196 4.77169C21.9959 4.46535 22.4407 4.25461 22.9161 4.15743C23.3915 4.06026 23.8834 4.07954 24.3497 4.21364C24.8161 4.34774 25.243 4.59266 25.5942 4.92752C25.9454 5.26237 26.2103 5.67722 26.3664 6.13665C26.5225 6.59608 26.5651 7.08646 26.4907 7.56594C26.4706 7.69369 26.4809 7.82438 26.521 7.94736C26.561 8.07033 26.6295 8.1821 26.721 8.27354C26.8124 8.36499 26.9242 8.43352 27.0471 8.47354C27.1701 8.51356 27.3008 8.52394 27.4286 8.50383C28.0397 8.40628 28.666 8.49961 29.2221 8.77107C29.7782 9.04253 30.2371 9.47892 30.5361 10.0207C30.8351 10.5625 30.9597 11.1834 30.8929 11.7986C30.8262 12.4138 30.5712 12.9935 30.1629 13.4585L30.1602 13.464Z" fill="#1D1B20"/>
</svg>
