<svg width="23" height="34" viewBox="0 0 23 34" fill="none" xmlns="http://www.w3.org/2000/svg">
<path fill-rule="evenodd" clip-rule="evenodd" d="M12.8208 27.5408C12.2006 27.1363 11.4634 26.9499 10.7255 27.0109C9.98754 27.0719 9.29094 27.3768 8.74555 27.8777C8.20017 28.3785 7.83705 29.0466 7.71349 29.7766C7.58993 30.5067 7.71296 31.2571 8.06318 31.9095C8.41339 32.5619 8.97084 33.0791 9.64759 33.3795C10.3243 33.6799 11.0819 33.7465 11.8006 33.5687C12.5194 33.3908 13.1585 32.9788 13.6171 32.3974C14.0757 31.8161 14.3277 31.0987 14.3333 30.3582L14.52 27.0099H15.8142L16 30.3582C16.0056 31.0987 16.2576 31.8161 16.7162 32.3974C17.1748 32.9788 17.8139 33.3908 18.5327 33.5687C19.2515 33.7465 20.009 33.6799 20.6857 33.3795C21.3625 33.0791 21.9199 32.5619 22.2701 31.9095C22.6203 31.2571 22.7434 30.5067 22.6198 29.7766C22.4963 29.0466 22.1331 28.3785 21.5878 27.8777C21.0424 27.3768 20.3458 27.0719 19.6079 27.0109C18.8699 26.9499 18.1327 27.1363 17.5125 27.5408L15.9983 0.333252L15.1667 0.379919L14.335 0.333252L12.8208 27.5408ZM15.7208 25.3433L15.1667 15.3799L14.6125 25.3433H15.7208ZM16 12.0299C16.0035 12.1415 15.9845 12.2527 15.9442 12.3568C15.9038 12.4609 15.843 12.5559 15.7653 12.636C15.6875 12.7162 15.5945 12.7799 15.4917 12.8234C15.3888 12.8669 15.2783 12.8892 15.1666 12.8892C15.055 12.8891 14.9445 12.8666 14.8417 12.823C14.7389 12.7794 14.6459 12.7156 14.5683 12.6354C14.4906 12.5552 14.4299 12.4602 14.3897 12.356C14.3494 12.2519 14.3306 12.1407 14.3342 12.0291C14.3411 11.8127 14.432 11.6076 14.5875 11.4571C14.743 11.3065 14.951 11.2224 15.1675 11.2225C15.3839 11.2226 15.5918 11.3069 15.7472 11.4576C15.9026 11.6083 15.9933 11.8136 16 12.0299ZM9.33332 30.3333C9.33332 29.8912 9.50892 29.4673 9.82148 29.1547C10.134 28.8422 10.558 28.6666 11 28.6666C11.442 28.6666 11.8659 28.8422 12.1785 29.1547C12.4911 29.4673 12.6667 29.8912 12.6667 30.3333C12.6667 30.7753 12.4911 31.1992 12.1785 31.5118C11.8659 31.8243 11.442 31.9999 11 31.9999C10.558 31.9999 10.134 31.8243 9.82148 31.5118C9.50892 31.1992 9.33332 30.7753 9.33332 30.3333ZM19.3333 28.6666C18.8913 28.6666 18.4674 28.8422 18.1548 29.1547C17.8423 29.4673 17.6667 29.8912 17.6667 30.3333C17.6667 30.7753 17.8423 31.1992 18.1548 31.5118C18.4674 31.8243 18.8913 31.9999 19.3333 31.9999C19.7754 31.9999 20.1993 31.8243 20.5118 31.5118C20.8244 31.1992 21 30.7753 21 30.3333C21 29.8912 20.8244 29.4673 20.5118 29.1547C20.1993 28.8422 19.7754 28.6666 19.3333 28.6666Z" fill="#1D1B20"/>
<path d="M3.50004 9.49992V0.333252C3.50004 0.333252 0.60171 2.21659 0.210044 9.49825C0.160877 10.4174 0.913377 11.1666 1.83338 11.1666C2.2754 11.1666 2.69933 10.991 3.01189 10.6784C3.32445 10.3659 3.50004 9.94195 3.50004 9.49992ZM1.00004 14.0833C1.00004 13.7517 1.13174 13.4338 1.36616 13.1994C1.60058 12.965 1.91852 12.8333 2.25004 12.8333C2.58156 12.8333 2.89951 12.965 3.13393 13.1994C3.36835 13.4338 3.50004 13.7517 3.50004 14.0833V14.1549L1.00004 16.6549V14.0833ZM1.00004 19.0116V20.4049L3.50004 17.9049V16.5116L1.00004 19.0116ZM1.00004 24.1549V22.7616L3.50004 20.2616V21.6549L1.00004 24.1549ZM1.00004 26.5116V32.4166C1.00004 32.7481 1.13174 33.0661 1.36616 33.3005C1.60058 33.5349 1.91852 33.6666 2.25004 33.6666C2.58156 33.6666 2.89951 33.5349 3.13393 33.3005C3.36835 33.0661 3.50004 32.7481 3.50004 32.4166V24.0116L1.00004 26.5116Z" fill="#1D1B20"/>
</svg>
