<svg width="35" height="35" viewBox="0 0 35 35" fill="none" xmlns="http://www.w3.org/2000/svg">
<path d="M13.1249 8.75009C13.8541 9.47926 15.3168 9.35092 17.4999 7.54842M17.4999 7.54842C17.1771 7.28398 16.8422 6.97967 16.4951 6.63551C13.1322 3.30467 8.55305 3.95655 6.40784 6.63551C4.92617 8.48759 1.13451 13.0959 10.4153 29.5168C10.8003 30.1963 11.566 30.6251 12.3899 30.6251C13.7053 30.6251 14.7335 29.5751 14.7758 28.3501C14.8676 25.7513 15.3708 22.7545 17.4999 22.7545C19.6291 22.7545 20.1337 25.7513 20.2241 28.3501C20.2664 29.5751 21.2945 30.6251 22.6099 30.6251C23.4339 30.6251 24.1995 30.1963 24.5845 29.5168C33.8668 13.0945 30.0737 8.48759 28.592 6.63551C26.4468 3.95655 21.8676 3.30467 18.5047 6.63551C18.1576 6.9787 17.8227 7.28301 17.4999 7.54842Z" stroke="#1D1B20" stroke-width="1.5" stroke-linecap="round" stroke-linejoin="round"/>
</svg>
