<svg width="27" height="27" viewBox="0 0 27 27" fill="none" xmlns="http://www.w3.org/2000/svg">
<path d="M20.25 3.375C21.4435 3.375 22.5881 3.84911 23.432 4.69302C24.2759 5.53693 24.75 6.68153 24.75 7.875V16.875C24.75 18.0685 24.2759 19.2131 23.432 20.057C22.5881 20.9009 21.4435 21.375 20.25 21.375H14.9355L9.57825 24.5891C9.41691 24.6859 9.23387 24.7408 9.04587 24.7485C8.85787 24.7563 8.67092 24.7168 8.50214 24.6337C8.33336 24.5505 8.18813 24.4263 8.07974 24.2725C7.97136 24.1187 7.90328 23.9402 7.88175 23.7533L7.875 23.625V21.375H6.75C5.59548 21.375 4.48512 20.9313 3.64859 20.1356C2.81206 19.3399 2.31335 18.2531 2.25563 17.1L2.25 16.875V7.875C2.25 6.68153 2.72411 5.53693 3.56802 4.69302C4.41193 3.84911 5.55653 3.375 6.75 3.375H20.25ZM17.1 13.8218C16.8869 13.6129 16.5997 13.4973 16.3014 13.5002C16.003 13.5032 15.7181 13.6245 15.5093 13.8375C15.2474 14.1049 14.9348 14.3173 14.5898 14.4623C14.2447 14.6073 13.8743 14.682 13.5 14.682C13.1257 14.682 12.7553 14.6073 12.4102 14.4623C12.0652 14.3173 11.7526 14.1049 11.4907 13.8375C11.2808 13.6294 10.9974 13.5123 10.7019 13.5115C10.4063 13.5107 10.1222 13.6262 9.91117 13.8331C9.7001 14.0401 9.57895 14.3218 9.57391 14.6173C9.56887 14.9128 9.68036 15.1985 9.88425 15.4125C10.3556 15.8935 10.9182 16.2756 11.539 16.5364C12.1599 16.7973 12.8266 16.9317 13.5 16.9317C14.1734 16.9317 14.8401 16.7973 15.461 16.5364C16.0818 16.2756 16.6444 15.8935 17.1157 15.4125C17.3246 15.1994 17.4402 14.9122 17.4373 14.6139C17.4343 14.3155 17.313 14.0306 17.1 13.8218ZM10.6988 9H10.6875C10.3891 9 10.103 9.11853 9.892 9.3295C9.68103 9.54048 9.5625 9.82663 9.5625 10.125C9.5625 10.4234 9.68103 10.7095 9.892 10.9205C10.103 11.1315 10.3891 11.25 10.6875 11.25H10.6988C10.9971 11.25 11.2833 11.1315 11.4942 10.9205C11.7052 10.7095 11.8238 10.4234 11.8238 10.125C11.8238 9.82663 11.7052 9.54048 11.4942 9.3295C11.2833 9.11853 10.9971 9 10.6988 9ZM16.3238 9H16.3125C16.0141 9 15.728 9.11853 15.517 9.3295C15.306 9.54048 15.1875 9.82663 15.1875 10.125C15.1875 10.4234 15.306 10.7095 15.517 10.9205C15.728 11.1315 16.0141 11.25 16.3125 11.25H16.3238C16.6221 11.25 16.9083 11.1315 17.1192 10.9205C17.3302 10.7095 17.4488 10.4234 17.4488 10.125C17.4488 9.82663 17.3302 9.54048 17.1192 9.3295C16.9083 9.11853 16.6221 9 16.3238 9Z" fill="#1D1B20"/>
</svg>
